<svg width="689" height="586" viewBox="0 0 689 586" fill="none" xmlns="http://www.w3.org/2000/svg">
<mask id="path-1-inside-1_4183_5532" fill="white">
<path d="M489.634 137.479C455.537 105.277 411.716 85.3038 365.044 80.6923C318.372 76.0808 271.49 87.0921 231.751 111.999L286.837 199.89C307.113 187.182 331.033 181.564 354.845 183.917C378.658 186.27 401.016 196.46 418.412 212.89L489.634 137.479Z"/>
</mask>
<path d="M489.634 137.479C455.537 105.277 411.716 85.3038 365.044 80.6923C318.372 76.0808 271.49 87.0921 231.751 111.999L286.837 199.89C307.113 187.182 331.033 181.564 354.845 183.917C378.658 186.27 401.016 196.46 418.412 212.89L489.634 137.479Z" fill="#B6998F" stroke="#AE9086" stroke-width="12" mask="url(#path-1-inside-1_4183_5532)"/>
<mask id="path-2-inside-2_4183_5532" fill="white">
<path d="M232.996 111.225C207.212 127.137 185.144 148.397 168.279 173.568C151.415 198.739 140.148 227.236 135.239 257.134C130.331 287.033 131.894 317.636 139.825 346.878C147.756 376.12 161.868 403.32 181.21 426.642L261.051 360.424C251.183 348.525 243.982 334.647 239.936 319.728C235.89 304.808 235.092 289.194 237.596 273.939C240.101 258.685 245.849 244.146 254.454 231.303C263.058 218.461 274.318 207.614 287.473 199.495L232.996 111.225Z"/>
</mask>
<path d="M232.996 111.225C207.212 127.137 185.144 148.397 168.279 173.568C151.415 198.739 140.148 227.236 135.239 257.134C130.331 287.033 131.894 317.636 139.825 346.878C147.756 376.12 161.868 403.32 181.21 426.642L261.051 360.424C251.183 348.525 243.982 334.647 239.936 319.728C235.89 304.808 235.092 289.194 237.596 273.939C240.101 258.685 245.849 244.146 254.454 231.303C263.058 218.461 274.318 207.614 287.473 199.495L232.996 111.225Z" fill="#93817B" stroke="#8D7770" stroke-width="12" mask="url(#path-2-inside-2_4183_5532)"/>
<mask id="path-3-inside-3_4183_5532" fill="white">
<path d="M178.898 423.804C198.873 448.753 224.235 468.858 253.085 482.612C281.934 496.365 313.522 503.411 345.482 503.221C377.441 503.03 408.943 495.609 437.627 481.513C466.31 467.417 491.432 447.011 511.108 421.826L429.368 357.967C419.329 370.816 406.512 381.227 391.877 388.419C377.243 395.611 361.17 399.398 344.864 399.495C328.558 399.592 312.442 395.997 297.722 388.98C283.003 381.963 270.063 371.705 259.872 358.976L178.898 423.804Z"/>
</mask>
<path d="M178.898 423.804C198.873 448.753 224.235 468.858 253.085 482.612C281.934 496.365 313.522 503.411 345.482 503.221C377.441 503.03 408.943 495.609 437.627 481.513C466.31 467.417 491.432 447.011 511.108 421.826L429.368 357.967C419.329 370.816 406.512 381.227 391.877 388.419C377.243 395.611 361.17 399.398 344.864 399.495C328.558 399.592 312.442 395.997 297.722 388.98C283.003 381.963 270.063 371.705 259.872 358.976L178.898 423.804Z" fill="#DDD3CF" stroke="#D8CAC4" stroke-width="12" mask="url(#path-3-inside-3_4183_5532)"/>
<mask id="path-4-inside-4_4183_5532" fill="white">
<path d="M489.513 137.366C527.972 173.631 551.478 222.967 555.412 275.681C559.347 328.394 543.426 380.674 510.778 422.246L429.2 358.181C445.857 336.97 453.98 310.297 451.973 283.402C449.965 256.507 437.972 231.335 418.35 212.832L489.513 137.366Z"/>
</mask>
<path d="M489.513 137.366C527.972 173.631 551.478 222.967 555.412 275.681C559.347 328.394 543.426 380.674 510.778 422.246L429.2 358.181C445.857 336.97 453.98 310.297 451.973 283.402C449.965 256.507 437.972 231.335 418.35 212.832L489.513 137.366Z" fill="#CDBAB3" stroke="#C6B0A8" stroke-width="12" mask="url(#path-4-inside-4_4183_5532)"/>
<path d="M11.4124 194.153L5.62636 178.753H7.62836L12.4904 192.195L17.3964 178.753H19.3544L13.5684 194.153H11.4124ZM23.7825 194.417C22.8879 194.417 22.1399 194.263 21.5385 193.955C20.9372 193.632 20.4899 193.214 20.1965 192.701C19.9032 192.173 19.7565 191.601 19.7565 190.985C19.7565 190.237 19.9472 189.606 20.3285 189.093C20.7245 188.565 21.2745 188.169 21.9785 187.905C22.6972 187.626 23.5405 187.487 24.5085 187.487H27.4345C27.4345 186.798 27.3245 186.226 27.1045 185.771C26.8992 185.302 26.5912 184.95 26.1805 184.715C25.7845 184.48 25.2859 184.363 24.6845 184.363C23.9805 184.363 23.3719 184.539 22.8585 184.891C22.3452 185.243 22.0299 185.764 21.9125 186.453H20.0205C20.1085 185.661 20.3725 185.001 20.8125 184.473C21.2672 183.93 21.8392 183.52 22.5285 183.241C23.2179 182.948 23.9365 182.801 24.6845 182.801C25.7112 182.801 26.5619 182.992 27.2365 183.373C27.9259 183.74 28.4392 184.26 28.7765 184.935C29.1139 185.595 29.2825 186.38 29.2825 187.289V194.153H27.6325L27.5225 192.195C27.3759 192.503 27.1852 192.796 26.9505 193.075C26.7305 193.339 26.4665 193.574 26.1585 193.779C25.8652 193.97 25.5205 194.124 25.1245 194.241C24.7285 194.358 24.2812 194.417 23.7825 194.417ZM24.0685 192.855C24.5819 192.855 25.0439 192.752 25.4545 192.547C25.8799 192.327 26.2392 192.034 26.5325 191.667C26.8259 191.286 27.0459 190.868 27.1925 190.413C27.3539 189.958 27.4345 189.482 27.4345 188.983V188.917H24.6625C23.9439 188.917 23.3645 189.005 22.9245 189.181C22.4845 189.342 22.1692 189.577 21.9785 189.885C21.7879 190.178 21.6925 190.516 21.6925 190.897C21.6925 191.293 21.7805 191.638 21.9565 191.931C22.1472 192.224 22.4185 192.452 22.7705 192.613C23.1372 192.774 23.5699 192.855 24.0685 192.855ZM36.1966 194.153C35.5366 194.153 34.9646 194.05 34.4806 193.845C33.9966 193.64 33.6226 193.295 33.3586 192.811C33.1092 192.312 32.9846 191.645 32.9846 190.809V184.627H31.0486V183.065H32.9846L33.2266 180.381H34.8326V183.065H38.0446V184.627H34.8326V190.809C34.8326 191.498 34.9719 191.968 35.2506 192.217C35.5292 192.452 36.0206 192.569 36.7246 192.569H37.9126V194.153H36.1966ZM44.0638 194.417C43.1691 194.417 42.4211 194.263 41.8198 193.955C41.2185 193.632 40.7711 193.214 40.4778 192.701C40.1845 192.173 40.0378 191.601 40.0378 190.985C40.0378 190.237 40.2285 189.606 40.6098 189.093C41.0058 188.565 41.5558 188.169 42.2598 187.905C42.9785 187.626 43.8218 187.487 44.7898 187.487H47.7158C47.7158 186.798 47.6058 186.226 47.3858 185.771C47.1805 185.302 46.8725 184.95 46.4618 184.715C46.0658 184.48 45.5671 184.363 44.9658 184.363C44.2618 184.363 43.6531 184.539 43.1398 184.891C42.6265 185.243 42.3111 185.764 42.1938 186.453H40.3018C40.3898 185.661 40.6538 185.001 41.0938 184.473C41.5485 183.93 42.1205 183.52 42.8098 183.241C43.4991 182.948 44.2178 182.801 44.9658 182.801C45.9925 182.801 46.8431 182.992 47.5178 183.373C48.2071 183.74 48.7205 184.26 49.0578 184.935C49.3951 185.595 49.5638 186.38 49.5638 187.289V194.153H47.9138L47.8038 192.195C47.6571 192.503 47.4665 192.796 47.2318 193.075C47.0118 193.339 46.7478 193.574 46.4398 193.779C46.1465 193.97 45.8018 194.124 45.4058 194.241C45.0098 194.358 44.5625 194.417 44.0638 194.417ZM44.3498 192.855C44.8631 192.855 45.3251 192.752 45.7358 192.547C46.1611 192.327 46.5205 192.034 46.8138 191.667C47.1071 191.286 47.3271 190.868 47.4738 190.413C47.6351 189.958 47.7158 189.482 47.7158 188.983V188.917H44.9438C44.2251 188.917 43.6458 189.005 43.2058 189.181C42.7658 189.342 42.4505 189.577 42.2598 189.885C42.0691 190.178 41.9738 190.516 41.9738 190.897C41.9738 191.293 42.0618 191.638 42.2378 191.931C42.4285 192.224 42.6998 192.452 43.0518 192.613C43.4185 192.774 43.8511 192.855 44.3498 192.855ZM58.3763 194.153V178.753H62.9083C64.7123 178.753 66.201 179.068 67.3743 179.699C68.5477 180.315 69.413 181.202 69.9703 182.361C70.5423 183.505 70.8283 184.884 70.8283 186.497C70.8283 188.081 70.5423 189.445 69.9703 190.589C69.413 191.733 68.5477 192.613 67.3743 193.229C66.201 193.845 64.7123 194.153 62.9083 194.153H58.3763ZM60.2243 192.613H62.8643C64.3603 192.613 65.5483 192.371 66.4283 191.887C67.323 191.388 67.961 190.684 68.3423 189.775C68.7237 188.851 68.9143 187.758 68.9143 186.497C68.9143 185.206 68.7237 184.099 68.3423 183.175C67.961 182.251 67.323 181.54 66.4283 181.041C65.5483 180.542 64.3603 180.293 62.8643 180.293H60.2243V192.613ZM78.3628 194.417C77.3362 194.417 76.4122 194.182 75.5908 193.713C74.7695 193.229 74.1242 192.554 73.6548 191.689C73.1855 190.809 72.9508 189.79 72.9508 188.631C72.9508 187.443 73.1855 186.416 73.6548 185.551C74.1388 184.671 74.7915 183.996 75.6128 183.527C76.4488 183.043 77.3802 182.801 78.4068 182.801C79.4628 182.801 80.3942 183.043 81.2008 183.527C82.0222 183.996 82.6675 184.671 83.1368 185.551C83.6208 186.416 83.8628 187.436 83.8628 188.609C83.8628 189.782 83.6208 190.809 83.1368 191.689C82.6528 192.554 82.0002 193.229 81.1788 193.713C80.3575 194.182 79.4188 194.417 78.3628 194.417ZM78.3848 192.833C79.0155 192.833 79.6022 192.679 80.1448 192.371C80.6875 192.048 81.1275 191.572 81.4648 190.941C81.8022 190.31 81.9708 189.533 81.9708 188.609C81.9708 187.67 81.8022 186.893 81.4648 186.277C81.1422 185.646 80.7095 185.177 80.1668 184.869C79.6388 184.546 79.0522 184.385 78.4068 184.385C77.7908 184.385 77.2042 184.546 76.6468 184.869C76.1042 185.177 75.6642 185.646 75.3268 186.277C75.0042 186.893 74.8428 187.67 74.8428 188.609C74.8428 189.533 75.0042 190.31 75.3268 190.941C75.6642 191.572 76.0968 192.048 76.6248 192.371C77.1675 192.679 77.7542 192.833 78.3848 192.833ZM90.6338 194.417C89.7245 194.417 88.9252 194.263 88.2358 193.955C87.5465 193.647 86.9965 193.222 86.5858 192.679C86.1898 192.122 85.9478 191.469 85.8598 190.721H87.7518C87.8252 191.102 87.9792 191.454 88.2138 191.777C88.4485 192.1 88.7638 192.364 89.1598 192.569C89.5705 192.76 90.0692 192.855 90.6558 192.855C91.1692 192.855 91.5945 192.782 91.9318 192.635C92.2692 192.474 92.5185 192.261 92.6798 191.997C92.8558 191.733 92.9438 191.447 92.9438 191.139C92.9438 190.684 92.8338 190.34 92.6138 190.105C92.4085 189.87 92.1005 189.687 91.6898 189.555C91.2792 189.408 90.7805 189.284 90.1938 189.181C89.7098 189.093 89.2332 188.976 88.7638 188.829C88.2945 188.682 87.8765 188.492 87.5098 188.257C87.1432 188.008 86.8498 187.707 86.6298 187.355C86.4245 187.003 86.3218 186.57 86.3218 186.057C86.3218 185.426 86.4832 184.869 86.8058 184.385C87.1432 183.886 87.6125 183.498 88.2138 183.219C88.8152 182.94 89.5192 182.801 90.3258 182.801C91.5138 182.801 92.4745 183.087 93.2078 183.659C93.9412 184.231 94.3738 185.06 94.5058 186.145H92.6798C92.6065 185.588 92.3645 185.155 91.9538 184.847C91.5578 184.524 91.0078 184.363 90.3038 184.363C89.6145 184.363 89.0865 184.502 88.7198 184.781C88.3678 185.06 88.1918 185.426 88.1918 185.881C88.1918 186.174 88.2872 186.438 88.4778 186.673C88.6832 186.893 88.9838 187.084 89.3798 187.245C89.7758 187.406 90.2525 187.538 90.8098 187.641C91.5432 187.773 92.2105 187.949 92.8118 188.169C93.4132 188.389 93.8972 188.719 94.2638 189.159C94.6452 189.584 94.8358 190.193 94.8358 190.985C94.8358 191.674 94.6598 192.276 94.3078 192.789C93.9705 193.302 93.4865 193.706 92.8558 193.999C92.2252 194.278 91.4845 194.417 90.6338 194.417ZM97.4968 194.153V178.313H99.3448V184.935C99.7115 184.275 100.225 183.754 100.885 183.373C101.559 182.992 102.293 182.801 103.085 182.801C103.935 182.801 104.676 182.977 105.307 183.329C105.937 183.666 106.421 184.187 106.759 184.891C107.096 185.595 107.265 186.482 107.265 187.553V194.153H105.439V187.751C105.439 186.636 105.204 185.8 104.735 185.243C104.265 184.671 103.583 184.385 102.689 184.385C102.058 184.385 101.486 184.539 100.973 184.847C100.474 185.155 100.078 185.595 99.7848 186.167C99.4915 186.739 99.3448 187.443 99.3448 188.279V194.153H97.4968ZM113.759 194.417C112.864 194.417 112.116 194.263 111.515 193.955C110.914 193.632 110.466 193.214 110.173 192.701C109.88 192.173 109.733 191.601 109.733 190.985C109.733 190.237 109.924 189.606 110.305 189.093C110.701 188.565 111.251 188.169 111.955 187.905C112.674 187.626 113.517 187.487 114.485 187.487H117.411C117.411 186.798 117.301 186.226 117.081 185.771C116.876 185.302 116.568 184.95 116.157 184.715C115.761 184.48 115.262 184.363 114.661 184.363C113.957 184.363 113.348 184.539 112.835 184.891C112.322 185.243 112.006 185.764 111.889 186.453H109.997C110.085 185.661 110.349 185.001 110.789 184.473C111.244 183.93 111.816 183.52 112.505 183.241C113.194 182.948 113.913 182.801 114.661 182.801C115.688 182.801 116.538 182.992 117.213 183.373C117.902 183.74 118.416 184.26 118.753 184.935C119.09 185.595 119.259 186.38 119.259 187.289V194.153H117.609L117.499 192.195C117.352 192.503 117.162 192.796 116.927 193.075C116.707 193.339 116.443 193.574 116.135 193.779C115.842 193.97 115.497 194.124 115.101 194.241C114.705 194.358 114.258 194.417 113.759 194.417ZM114.045 192.855C114.558 192.855 115.02 192.752 115.431 192.547C115.856 192.327 116.216 192.034 116.509 191.667C116.802 191.286 117.022 190.868 117.169 190.413C117.33 189.958 117.411 189.482 117.411 188.983V188.917H114.639C113.92 188.917 113.341 189.005 112.901 189.181C112.461 189.342 112.146 189.577 111.955 189.885C111.764 190.178 111.669 190.516 111.669 190.897C111.669 191.293 111.757 191.638 111.933 191.931C112.124 192.224 112.395 192.452 112.747 192.613C113.114 192.774 113.546 192.855 114.045 192.855Z" fill="#423430"/>
<path d="M82.0084 219.062L81.4473 211.903L74.9668 215.645L80.8859 219.71L82.0084 219.062ZM171.306 287.003C171.664 287.003 171.954 286.713 171.954 286.355C171.954 285.998 171.664 285.707 171.306 285.707V286.355V287.003ZM120.11 286.355L119.549 286.679L119.736 287.003H120.11V286.355ZM81.1231 218.825L80.5619 219.149L119.549 286.679L120.11 286.355L120.672 286.031L81.6844 218.501L81.1231 218.825ZM120.11 286.355V287.003H171.306V286.355V285.707H120.11V286.355Z" fill="#423430"/>
<path d="M454.296 79.0624L454.857 71.9035L461.338 75.6449L455.419 79.7104L454.296 79.0624ZM364.999 147.003C364.641 147.003 364.351 146.713 364.351 146.355C364.351 145.998 364.641 145.707 364.999 145.707V146.355V147.003ZM416.194 146.355L416.756 146.679L416.568 147.003H416.194V146.355ZM455.182 78.8252L455.743 79.1492L416.756 146.679L416.194 146.355L415.633 146.031L454.62 78.5012L455.182 78.8252ZM416.194 146.355V147.003H364.999V146.355V145.707H416.194V146.355Z" fill="#423430"/>
<path d="M596.296 350.447L596.857 357.606L603.338 353.864L597.419 349.799L596.296 350.447ZM506.999 282.506C506.641 282.506 506.351 282.796 506.351 283.154C506.351 283.512 506.641 283.802 506.999 283.802V283.154V282.506ZM558.194 283.154L558.756 282.83L558.568 282.506H558.194V283.154ZM597.182 350.684L597.743 350.36L558.756 282.83L558.194 283.154L557.633 283.478L596.62 351.008L597.182 350.684ZM558.194 283.154V282.506H506.999V283.154V283.802H558.194V283.154Z" fill="#423430"/>
<path d="M413.296 536.447L413.857 543.606L420.338 539.864L414.419 535.799L413.296 536.447ZM323.999 468.506C323.641 468.506 323.351 468.796 323.351 469.154C323.351 469.512 323.641 469.802 323.999 469.802V469.154V468.506ZM375.194 469.154L375.756 468.83L375.568 468.506H375.194V469.154ZM414.182 536.684L414.743 536.36L375.756 468.83L375.194 469.154L374.633 469.478L413.62 537.008L414.182 536.684ZM375.194 469.154V468.506H323.999V469.154V469.802H375.194V469.154Z" fill="#423430"/>
<path d="M416.04 56.1531V40.7531H421.078C422.281 40.7531 423.271 40.9584 424.048 41.3691C424.84 41.7651 425.42 42.3004 425.786 42.9751C426.168 43.6497 426.358 44.4197 426.358 45.2851C426.358 46.1211 426.168 46.8837 425.786 47.5731C425.42 48.2477 424.848 48.7904 424.07 49.2011C423.293 49.5971 422.296 49.7951 421.078 49.7951H417.888V56.1531H416.04ZM417.888 48.2331H421.034C422.266 48.2331 423.146 47.9691 423.674 47.4411C424.202 46.8984 424.466 46.1797 424.466 45.2851C424.466 44.3317 424.202 43.5984 423.674 43.0851C423.146 42.5571 422.266 42.2931 421.034 42.2931H417.888V48.2331ZM428.868 56.1531V45.0651H430.716V56.1531H428.868ZM429.792 42.7111C429.425 42.7111 429.117 42.5937 428.868 42.3591C428.633 42.1097 428.516 41.8017 428.516 41.4351C428.516 41.0684 428.633 40.7751 428.868 40.5551C429.117 40.3204 429.425 40.2031 429.792 40.2031C430.144 40.2031 430.445 40.3204 430.694 40.5551C430.943 40.7751 431.068 41.0684 431.068 41.4351C431.068 41.8017 430.943 42.1097 430.694 42.3591C430.445 42.5937 430.144 42.7111 429.792 42.7111ZM438.333 56.1531C437.673 56.1531 437.101 56.0504 436.617 55.8451C436.133 55.6397 435.759 55.2951 435.495 54.8111C435.246 54.3124 435.121 53.6451 435.121 52.8091V46.6271H433.185V45.0651H435.121L435.363 42.3811H436.969V45.0651H440.181V46.6271H436.969V52.8091C436.969 53.4984 437.109 53.9677 437.387 54.2171C437.666 54.4517 438.157 54.5691 438.861 54.5691H440.049V56.1531H438.333ZM446.949 56.1531C446.289 56.1531 445.717 56.0504 445.233 55.8451C444.749 55.6397 444.375 55.2951 444.111 54.8111C443.861 54.3124 443.737 53.6451 443.737 52.8091V46.6271H441.801V45.0651H443.737L443.979 42.3811H445.585V45.0651H448.797V46.6271H445.585V52.8091C445.585 53.4984 445.724 53.9677 446.003 54.2171C446.281 54.4517 446.773 54.5691 447.477 54.5691H448.665V56.1531H446.949ZM454.816 56.4171C453.921 56.4171 453.173 56.2631 452.572 55.9551C451.97 55.6324 451.523 55.2144 451.23 54.7011C450.936 54.1731 450.79 53.6011 450.79 52.9851C450.79 52.2371 450.98 51.6064 451.362 51.0931C451.758 50.5651 452.308 50.1691 453.012 49.9051C453.73 49.6264 454.574 49.4871 455.542 49.4871H458.468C458.468 48.7977 458.358 48.2257 458.138 47.7711C457.932 47.3017 457.624 46.9497 457.214 46.7151C456.818 46.4804 456.319 46.3631 455.718 46.3631C455.014 46.3631 454.405 46.5391 453.892 46.8911C453.378 47.2431 453.063 47.7637 452.946 48.4531H451.054C451.142 47.6611 451.406 47.0011 451.846 46.4731C452.3 45.9304 452.872 45.5197 453.562 45.2411C454.251 44.9477 454.97 44.8011 455.718 44.8011C456.744 44.8011 457.595 44.9917 458.27 45.3731C458.959 45.7397 459.472 46.2604 459.81 46.9351C460.147 47.5951 460.316 48.3797 460.316 49.2891V56.1531H458.666L458.556 54.1951C458.409 54.5031 458.218 54.7964 457.984 55.0751C457.764 55.3391 457.5 55.5737 457.192 55.7791C456.898 55.9697 456.554 56.1237 456.158 56.2411C455.762 56.3584 455.314 56.4171 454.816 56.4171ZM455.102 54.8551C455.615 54.8551 456.077 54.7524 456.488 54.5471C456.913 54.3271 457.272 54.0337 457.566 53.6671C457.859 53.2857 458.079 52.8677 458.226 52.4131C458.387 51.9584 458.468 51.4817 458.468 50.9831V50.9171H455.696C454.977 50.9171 454.398 51.0051 453.958 51.1811C453.518 51.3424 453.202 51.5771 453.012 51.8851C452.821 52.1784 452.726 52.5157 452.726 52.8971C452.726 53.2931 452.814 53.6377 452.99 53.9311C453.18 54.2244 453.452 54.4517 453.804 54.6131C454.17 54.7744 454.603 54.8551 455.102 54.8551ZM469.128 56.1531V40.7531H473.66C475.464 40.7531 476.953 41.0684 478.126 41.6991C479.3 42.3151 480.165 43.2024 480.722 44.3611C481.294 45.5051 481.58 46.8837 481.58 48.4971C481.58 50.0811 481.294 51.4451 480.722 52.5891C480.165 53.7331 479.3 54.6131 478.126 55.2291C476.953 55.8451 475.464 56.1531 473.66 56.1531H469.128ZM470.976 54.6131H473.616C475.112 54.6131 476.3 54.3711 477.18 53.8871C478.075 53.3884 478.713 52.6844 479.094 51.7751C479.476 50.8511 479.666 49.7584 479.666 48.4971C479.666 47.2064 479.476 46.0991 479.094 45.1751C478.713 44.2511 478.075 43.5397 477.18 43.0411C476.3 42.5424 475.112 42.2931 473.616 42.2931H470.976V54.6131ZM489.115 56.4171C488.088 56.4171 487.164 56.1824 486.343 55.7131C485.521 55.2291 484.876 54.5544 484.407 53.6891C483.937 52.8091 483.703 51.7897 483.703 50.6311C483.703 49.4431 483.937 48.4164 484.407 47.5511C484.891 46.6711 485.543 45.9964 486.365 45.5271C487.201 45.0431 488.132 44.8011 489.159 44.8011C490.215 44.8011 491.146 45.0431 491.953 45.5271C492.774 45.9964 493.419 46.6711 493.889 47.5511C494.373 48.4164 494.615 49.4357 494.615 50.6091C494.615 51.7824 494.373 52.8091 493.889 53.6891C493.405 54.5544 492.752 55.2291 491.931 55.7131C491.109 56.1824 490.171 56.4171 489.115 56.4171ZM489.137 54.8331C489.767 54.8331 490.354 54.6791 490.897 54.3711C491.439 54.0484 491.879 53.5717 492.217 52.9411C492.554 52.3104 492.723 51.5331 492.723 50.6091C492.723 49.6704 492.554 48.8931 492.217 48.2771C491.894 47.6464 491.461 47.1771 490.919 46.8691C490.391 46.5464 489.804 46.3851 489.159 46.3851C488.543 46.3851 487.956 46.5464 487.399 46.8691C486.856 47.1771 486.416 47.6464 486.079 48.2771C485.756 48.8931 485.595 49.6704 485.595 50.6091C485.595 51.5331 485.756 52.3104 486.079 52.9411C486.416 53.5717 486.849 54.0484 487.377 54.3711C487.919 54.6791 488.506 54.8331 489.137 54.8331ZM501.386 56.4171C500.476 56.4171 499.677 56.2631 498.988 55.9551C498.298 55.6471 497.748 55.2217 497.338 54.6791C496.942 54.1217 496.7 53.4691 496.612 52.7211H498.504C498.577 53.1024 498.731 53.4544 498.966 53.7771C499.2 54.0997 499.516 54.3637 499.912 54.5691C500.322 54.7597 500.821 54.8551 501.408 54.8551C501.921 54.8551 502.346 54.7817 502.684 54.6351C503.021 54.4737 503.27 54.2611 503.432 53.9971C503.608 53.7331 503.696 53.4471 503.696 53.1391C503.696 52.6844 503.586 52.3397 503.366 52.1051C503.16 51.8704 502.852 51.6871 502.442 51.5551C502.031 51.4084 501.532 51.2837 500.946 51.1811C500.462 51.0931 499.985 50.9757 499.516 50.8291C499.046 50.6824 498.628 50.4917 498.262 50.2571C497.895 50.0077 497.602 49.7071 497.382 49.3551C497.176 49.0031 497.074 48.5704 497.074 48.0571C497.074 47.4264 497.235 46.8691 497.558 46.3851C497.895 45.8864 498.364 45.4977 498.966 45.2191C499.567 44.9404 500.271 44.8011 501.078 44.8011C502.266 44.8011 503.226 45.0871 503.96 45.6591C504.693 46.2311 505.126 47.0597 505.258 48.1451H503.432C503.358 47.5877 503.116 47.1551 502.706 46.8471C502.31 46.5244 501.76 46.3631 501.056 46.3631C500.366 46.3631 499.838 46.5024 499.472 46.7811C499.12 47.0597 498.944 47.4264 498.944 47.8811C498.944 48.1744 499.039 48.4384 499.23 48.6731C499.435 48.8931 499.736 49.0837 500.132 49.2451C500.528 49.4064 501.004 49.5384 501.562 49.6411C502.295 49.7731 502.962 49.9491 503.564 50.1691C504.165 50.3891 504.649 50.7191 505.016 51.1591C505.397 51.5844 505.588 52.1931 505.588 52.9851C505.588 53.6744 505.412 54.2757 505.06 54.7891C504.722 55.3024 504.238 55.7057 503.608 55.9991C502.977 56.2777 502.236 56.4171 501.386 56.4171ZM508.249 56.1531V40.3131H510.097V46.9351C510.463 46.2751 510.977 45.7544 511.637 45.3731C512.311 44.9917 513.045 44.8011 513.837 44.8011C514.687 44.8011 515.428 44.9771 516.059 45.3291C516.689 45.6664 517.173 46.1871 517.511 46.8911C517.848 47.5951 518.017 48.4824 518.017 49.5531V56.1531H516.191V49.7511C516.191 48.6364 515.956 47.8004 515.487 47.2431C515.017 46.6711 514.335 46.3851 513.441 46.3851C512.81 46.3851 512.238 46.5391 511.725 46.8471C511.226 47.1551 510.83 47.5951 510.537 48.1671C510.243 48.7391 510.097 49.4431 510.097 50.2791V56.1531H508.249ZM524.511 56.4171C523.616 56.4171 522.868 56.2631 522.267 55.9551C521.666 55.6324 521.218 55.2144 520.925 54.7011C520.632 54.1731 520.485 53.6011 520.485 52.9851C520.485 52.2371 520.676 51.6064 521.057 51.0931C521.453 50.5651 522.003 50.1691 522.707 49.9051C523.426 49.6264 524.269 49.4871 525.237 49.4871H528.163C528.163 48.7977 528.053 48.2257 527.833 47.7711C527.628 47.3017 527.32 46.9497 526.909 46.7151C526.513 46.4804 526.014 46.3631 525.413 46.3631C524.709 46.3631 524.1 46.5391 523.587 46.8911C523.074 47.2431 522.758 47.7637 522.641 48.4531H520.749C520.837 47.6611 521.101 47.0011 521.541 46.4731C521.996 45.9304 522.568 45.5197 523.257 45.2411C523.946 44.9477 524.665 44.8011 525.413 44.8011C526.44 44.8011 527.29 44.9917 527.965 45.3731C528.654 45.7397 529.168 46.2604 529.505 46.9351C529.842 47.5951 530.011 48.3797 530.011 49.2891V56.1531H528.361L528.251 54.1951C528.104 54.5031 527.914 54.7964 527.679 55.0751C527.459 55.3391 527.195 55.5737 526.887 55.7791C526.594 55.9697 526.249 56.1237 525.853 56.2411C525.457 56.3584 525.01 56.4171 524.511 56.4171ZM524.797 54.8551C525.31 54.8551 525.772 54.7524 526.183 54.5471C526.608 54.3271 526.968 54.0337 527.261 53.6671C527.554 53.2857 527.774 52.8677 527.921 52.4131C528.082 51.9584 528.163 51.4817 528.163 50.9831V50.9171H525.391C524.672 50.9171 524.093 51.0051 523.653 51.1811C523.213 51.3424 522.898 51.5771 522.707 51.8851C522.516 52.1784 522.421 52.5157 522.421 52.8971C522.421 53.2931 522.509 53.6377 522.685 53.9311C522.876 54.2244 523.147 54.4517 523.499 54.6131C523.866 54.7744 524.298 54.8551 524.797 54.8551Z" fill="#423430"/>
<path d="M557.935 390.153V374.753H559.783V381.727L566.207 374.753H568.539L562.819 380.891L568.627 390.153H566.383L561.499 382.321L559.783 384.147V390.153H557.935ZM573.787 390.417C572.892 390.417 572.144 390.263 571.543 389.955C570.941 389.632 570.494 389.214 570.201 388.701C569.907 388.173 569.761 387.601 569.761 386.985C569.761 386.237 569.951 385.606 570.333 385.093C570.729 384.565 571.279 384.169 571.983 383.905C572.701 383.626 573.545 383.487 574.513 383.487H577.439C577.439 382.798 577.329 382.226 577.109 381.771C576.903 381.302 576.595 380.95 576.185 380.715C575.789 380.48 575.29 380.363 574.689 380.363C573.985 380.363 573.376 380.539 572.863 380.891C572.349 381.243 572.034 381.764 571.917 382.453H570.025C570.113 381.661 570.377 381.001 570.817 380.473C571.271 379.93 571.843 379.52 572.533 379.241C573.222 378.948 573.941 378.801 574.689 378.801C575.715 378.801 576.566 378.992 577.241 379.373C577.93 379.74 578.443 380.26 578.781 380.935C579.118 381.595 579.287 382.38 579.287 383.289V390.153H577.637L577.527 388.195C577.38 388.503 577.189 388.796 576.955 389.075C576.735 389.339 576.471 389.574 576.163 389.779C575.869 389.97 575.525 390.124 575.129 390.241C574.733 390.358 574.285 390.417 573.787 390.417ZM574.073 388.855C574.586 388.855 575.048 388.752 575.459 388.547C575.884 388.327 576.243 388.034 576.537 387.667C576.83 387.286 577.05 386.868 577.197 386.413C577.358 385.958 577.439 385.482 577.439 384.983V384.917H574.667C573.948 384.917 573.369 385.005 572.929 385.181C572.489 385.342 572.173 385.577 571.983 385.885C571.792 386.178 571.697 386.516 571.697 386.897C571.697 387.293 571.785 387.638 571.961 387.931C572.151 388.224 572.423 388.452 572.775 388.613C573.141 388.774 573.574 388.855 574.073 388.855ZM582.145 394.993V379.065H583.817L583.971 380.869C584.206 380.517 584.507 380.187 584.873 379.879C585.24 379.556 585.68 379.3 586.193 379.109C586.707 378.904 587.301 378.801 587.975 378.801C589.046 378.801 589.977 379.058 590.769 379.571C591.576 380.084 592.199 380.781 592.639 381.661C593.094 382.526 593.321 383.516 593.321 384.631C593.321 385.746 593.094 386.743 592.639 387.623C592.199 388.488 591.576 389.17 590.769 389.669C589.963 390.168 589.024 390.417 587.953 390.417C587.059 390.417 586.267 390.234 585.577 389.867C584.888 389.5 584.36 388.987 583.993 388.327V394.993H582.145ZM587.733 388.811C588.452 388.811 589.09 388.635 589.647 388.283C590.219 387.931 590.659 387.447 590.967 386.831C591.29 386.2 591.451 385.46 591.451 384.609C591.451 383.773 591.29 383.04 590.967 382.409C590.659 381.778 590.219 381.287 589.647 380.935C589.09 380.583 588.452 380.407 587.733 380.407C587 380.407 586.355 380.583 585.797 380.935C585.24 381.287 584.807 381.778 584.499 382.409C584.191 383.04 584.037 383.773 584.037 384.609C584.037 385.46 584.191 386.2 584.499 386.831C584.807 387.447 585.24 387.931 585.797 388.283C586.355 388.635 587 388.811 587.733 388.811ZM595.938 390.153V374.313H597.786V380.935C598.153 380.275 598.666 379.754 599.326 379.373C600.001 378.992 600.734 378.801 601.526 378.801C602.377 378.801 603.118 378.977 603.748 379.329C604.379 379.666 604.863 380.187 605.2 380.891C605.538 381.595 605.706 382.482 605.706 383.553V390.153H603.88V383.751C603.88 382.636 603.646 381.8 603.176 381.243C602.707 380.671 602.025 380.385 601.13 380.385C600.5 380.385 599.928 380.539 599.414 380.847C598.916 381.155 598.52 381.595 598.226 382.167C597.933 382.739 597.786 383.443 597.786 384.279V390.153H595.938ZM612.201 390.417C611.306 390.417 610.558 390.263 609.957 389.955C609.355 389.632 608.908 389.214 608.615 388.701C608.321 388.173 608.175 387.601 608.175 386.985C608.175 386.237 608.365 385.606 608.747 385.093C609.143 384.565 609.693 384.169 610.397 383.905C611.115 383.626 611.959 383.487 612.927 383.487H615.853C615.853 382.798 615.743 382.226 615.523 381.771C615.317 381.302 615.009 380.95 614.599 380.715C614.203 380.48 613.704 380.363 613.103 380.363C612.399 380.363 611.79 380.539 611.277 380.891C610.763 381.243 610.448 381.764 610.331 382.453H608.439C608.527 381.661 608.791 381.001 609.231 380.473C609.685 379.93 610.257 379.52 610.947 379.241C611.636 378.948 612.355 378.801 613.103 378.801C614.129 378.801 614.98 378.992 615.655 379.373C616.344 379.74 616.857 380.26 617.195 380.935C617.532 381.595 617.701 382.38 617.701 383.289V390.153H616.051L615.941 388.195C615.794 388.503 615.603 388.796 615.369 389.075C615.149 389.339 614.885 389.574 614.577 389.779C614.283 389.97 613.939 390.124 613.543 390.241C613.147 390.358 612.699 390.417 612.201 390.417ZM612.487 388.855C613 388.855 613.462 388.752 613.873 388.547C614.298 388.327 614.657 388.034 614.951 387.667C615.244 387.286 615.464 386.868 615.611 386.413C615.772 385.958 615.853 385.482 615.853 384.983V384.917H613.081C612.362 384.917 611.783 385.005 611.343 385.181C610.903 385.342 610.587 385.577 610.397 385.885C610.206 386.178 610.111 386.516 610.111 386.897C610.111 387.293 610.199 387.638 610.375 387.931C610.565 388.224 610.837 388.452 611.189 388.613C611.555 388.774 611.988 388.855 612.487 388.855ZM626.513 390.153V374.753H631.045C632.849 374.753 634.338 375.068 635.511 375.699C636.685 376.315 637.55 377.202 638.107 378.361C638.679 379.505 638.965 380.884 638.965 382.497C638.965 384.081 638.679 385.445 638.107 386.589C637.55 387.733 636.685 388.613 635.511 389.229C634.338 389.845 632.849 390.153 631.045 390.153H626.513ZM628.361 388.613H631.001C632.497 388.613 633.685 388.371 634.565 387.887C635.46 387.388 636.098 386.684 636.479 385.775C636.861 384.851 637.051 383.758 637.051 382.497C637.051 381.206 636.861 380.099 636.479 379.175C636.098 378.251 635.46 377.54 634.565 377.041C633.685 376.542 632.497 376.293 631.001 376.293H628.361V388.613ZM646.5 390.417C645.473 390.417 644.549 390.182 643.728 389.713C642.906 389.229 642.261 388.554 641.792 387.689C641.322 386.809 641.088 385.79 641.088 384.631C641.088 383.443 641.322 382.416 641.792 381.551C642.276 380.671 642.928 379.996 643.75 379.527C644.586 379.043 645.517 378.801 646.544 378.801C647.6 378.801 648.531 379.043 649.338 379.527C650.159 379.996 650.804 380.671 651.274 381.551C651.758 382.416 652 383.436 652 384.609C652 385.782 651.758 386.809 651.274 387.689C650.79 388.554 650.137 389.229 649.316 389.713C648.494 390.182 647.556 390.417 646.5 390.417ZM646.522 388.833C647.152 388.833 647.739 388.679 648.282 388.371C648.824 388.048 649.264 387.572 649.602 386.941C649.939 386.31 650.108 385.533 650.108 384.609C650.108 383.67 649.939 382.893 649.602 382.277C649.279 381.646 648.846 381.177 648.304 380.869C647.776 380.546 647.189 380.385 646.544 380.385C645.928 380.385 645.341 380.546 644.784 380.869C644.241 381.177 643.801 381.646 643.464 382.277C643.141 382.893 642.98 383.67 642.98 384.609C642.98 385.533 643.141 386.31 643.464 386.941C643.801 387.572 644.234 388.048 644.762 388.371C645.304 388.679 645.891 388.833 646.522 388.833ZM658.771 390.417C657.861 390.417 657.062 390.263 656.373 389.955C655.683 389.647 655.133 389.222 654.723 388.679C654.327 388.122 654.085 387.469 653.997 386.721H655.889C655.962 387.102 656.116 387.454 656.351 387.777C656.585 388.1 656.901 388.364 657.297 388.569C657.707 388.76 658.206 388.855 658.793 388.855C659.306 388.855 659.731 388.782 660.069 388.635C660.406 388.474 660.655 388.261 660.817 387.997C660.993 387.733 661.081 387.447 661.081 387.139C661.081 386.684 660.971 386.34 660.751 386.105C660.545 385.87 660.237 385.687 659.827 385.555C659.416 385.408 658.917 385.284 658.331 385.181C657.847 385.093 657.37 384.976 656.901 384.829C656.431 384.682 656.013 384.492 655.647 384.257C655.28 384.008 654.987 383.707 654.767 383.355C654.561 383.003 654.459 382.57 654.459 382.057C654.459 381.426 654.62 380.869 654.943 380.385C655.28 379.886 655.749 379.498 656.351 379.219C656.952 378.94 657.656 378.801 658.463 378.801C659.651 378.801 660.611 379.087 661.345 379.659C662.078 380.231 662.511 381.06 662.643 382.145H660.817C660.743 381.588 660.501 381.155 660.091 380.847C659.695 380.524 659.145 380.363 658.441 380.363C657.751 380.363 657.223 380.502 656.857 380.781C656.505 381.06 656.329 381.426 656.329 381.881C656.329 382.174 656.424 382.438 656.615 382.673C656.82 382.893 657.121 383.084 657.517 383.245C657.913 383.406 658.389 383.538 658.947 383.641C659.68 383.773 660.347 383.949 660.949 384.169C661.55 384.389 662.034 384.719 662.401 385.159C662.782 385.584 662.973 386.193 662.973 386.985C662.973 387.674 662.797 388.276 662.445 388.789C662.107 389.302 661.623 389.706 660.993 389.999C660.362 390.278 659.621 390.417 658.771 390.417ZM665.634 390.153V374.313H667.482V380.935C667.848 380.275 668.362 379.754 669.022 379.373C669.696 378.992 670.43 378.801 671.222 378.801C672.072 378.801 672.813 378.977 673.444 379.329C674.074 379.666 674.558 380.187 674.896 380.891C675.233 381.595 675.402 382.482 675.402 383.553V390.153H673.576V383.751C673.576 382.636 673.341 381.8 672.872 381.243C672.402 380.671 671.72 380.385 670.826 380.385C670.195 380.385 669.623 380.539 669.11 380.847C668.611 381.155 668.215 381.595 667.922 382.167C667.628 382.739 667.482 383.443 667.482 384.279V390.153H665.634ZM681.896 390.417C681.001 390.417 680.253 390.263 679.652 389.955C679.051 389.632 678.603 389.214 678.31 388.701C678.017 388.173 677.87 387.601 677.87 386.985C677.87 386.237 678.061 385.606 678.442 385.093C678.838 384.565 679.388 384.169 680.092 383.905C680.811 383.626 681.654 383.487 682.622 383.487H685.548C685.548 382.798 685.438 382.226 685.218 381.771C685.013 381.302 684.705 380.95 684.294 380.715C683.898 380.48 683.399 380.363 682.798 380.363C682.094 380.363 681.485 380.539 680.972 380.891C680.459 381.243 680.143 381.764 680.026 382.453H678.134C678.222 381.661 678.486 381.001 678.926 380.473C679.381 379.93 679.953 379.52 680.642 379.241C681.331 378.948 682.05 378.801 682.798 378.801C683.825 378.801 684.675 378.992 685.35 379.373C686.039 379.74 686.553 380.26 686.89 380.935C687.227 381.595 687.396 382.38 687.396 383.289V390.153H685.746L685.636 388.195C685.489 388.503 685.299 388.796 685.064 389.075C684.844 389.339 684.58 389.574 684.272 389.779C683.979 389.97 683.634 390.124 683.238 390.241C682.842 390.358 682.395 390.417 681.896 390.417ZM682.182 388.855C682.695 388.855 683.157 388.752 683.568 388.547C683.993 388.327 684.353 388.034 684.646 387.667C684.939 387.286 685.159 386.868 685.306 386.413C685.467 385.958 685.548 385.482 685.548 384.983V384.917H682.776C682.057 384.917 681.478 385.005 681.038 385.181C680.598 385.342 680.283 385.577 680.092 385.885C679.901 386.178 679.806 386.516 679.806 386.897C679.806 387.293 679.894 387.638 680.07 387.931C680.261 388.224 680.532 388.452 680.884 388.613C681.251 388.774 681.683 388.855 682.182 388.855Z" fill="#423430"/>
<path d="M316.822 580.153L322.498 564.753H324.456L330.11 580.153H328.152L323.466 567.063L318.758 580.153H316.822ZM319.418 576.193L319.946 574.697H326.92L327.448 576.193H319.418ZM332.311 580.153V569.065H333.983L334.093 570.649C334.445 570.077 334.915 569.63 335.501 569.307C336.103 568.97 336.755 568.801 337.459 568.801C338.031 568.801 338.545 568.882 338.999 569.043C339.469 569.19 339.879 569.424 340.231 569.747C340.598 570.055 340.884 570.451 341.089 570.935C341.471 570.26 341.999 569.74 342.673 569.373C343.348 568.992 344.059 568.801 344.807 568.801C345.673 568.801 346.421 568.977 347.051 569.329C347.682 569.666 348.173 570.187 348.525 570.891C348.877 571.58 349.053 572.46 349.053 573.531V580.153H347.227V573.729C347.227 572.614 347 571.778 346.545 571.221C346.091 570.664 345.445 570.385 344.609 570.385C344.037 570.385 343.524 570.539 343.069 570.847C342.615 571.14 342.255 571.573 341.991 572.145C341.727 572.717 341.595 573.421 341.595 574.257V580.153H339.747V573.729C339.747 572.614 339.52 571.778 339.065 571.221C338.611 570.664 337.973 570.385 337.151 570.385C336.594 570.385 336.088 570.539 335.633 570.847C335.179 571.14 334.819 571.573 334.555 572.145C334.291 572.717 334.159 573.421 334.159 574.257V580.153H332.311ZM355.513 580.417C354.619 580.417 353.871 580.263 353.269 579.955C352.668 579.632 352.221 579.214 351.927 578.701C351.634 578.173 351.487 577.601 351.487 576.985C351.487 576.237 351.678 575.606 352.059 575.093C352.455 574.565 353.005 574.169 353.709 573.905C354.428 573.626 355.271 573.487 356.239 573.487H359.165C359.165 572.798 359.055 572.226 358.835 571.771C358.63 571.302 358.322 570.95 357.911 570.715C357.515 570.48 357.017 570.363 356.415 570.363C355.711 570.363 355.103 570.539 354.589 570.891C354.076 571.243 353.761 571.764 353.643 572.453H351.751C351.839 571.661 352.103 571.001 352.543 570.473C352.998 569.93 353.57 569.52 354.259 569.241C354.949 568.948 355.667 568.801 356.415 568.801C357.442 568.801 358.293 568.992 358.967 569.373C359.657 569.74 360.17 570.26 360.507 570.935C360.845 571.595 361.013 572.38 361.013 573.289V580.153H359.363L359.253 578.195C359.107 578.503 358.916 578.796 358.681 579.075C358.461 579.339 358.197 579.574 357.889 579.779C357.596 579.97 357.251 580.124 356.855 580.241C356.459 580.358 356.012 580.417 355.513 580.417ZM355.799 578.855C356.313 578.855 356.775 578.752 357.185 578.547C357.611 578.327 357.97 578.034 358.263 577.667C358.557 577.286 358.777 576.868 358.923 576.413C359.085 575.958 359.165 575.482 359.165 574.983V574.917H356.393C355.675 574.917 355.095 575.005 354.655 575.181C354.215 575.342 353.9 575.577 353.709 575.885C353.519 576.178 353.423 576.516 353.423 576.897C353.423 577.293 353.511 577.638 353.687 577.931C353.878 578.224 354.149 578.452 354.501 578.613C354.868 578.774 355.301 578.855 355.799 578.855ZM373.654 583.343C372.862 582.58 372.128 581.671 371.454 580.615C370.779 579.574 370.236 578.4 369.826 577.095C369.43 575.79 369.232 574.367 369.232 572.827C369.232 571.287 369.43 569.864 369.826 568.559C370.236 567.254 370.779 566.073 371.454 565.017C372.128 563.961 372.862 563.059 373.654 562.311H375.546V562.487C374.651 563.367 373.866 564.35 373.192 565.435C372.532 566.52 372.011 567.686 371.63 568.933C371.263 570.165 371.08 571.463 371.08 572.827C371.08 574.191 371.263 575.496 371.63 576.743C372.011 577.975 372.539 579.134 373.214 580.219C373.888 581.304 374.666 582.287 375.546 583.167V583.343H373.654ZM381.641 580.153V566.271H377.043V564.753H388.087V566.271H383.489V580.153H381.641ZM393.228 580.417C392.202 580.417 391.278 580.182 390.456 579.713C389.635 579.229 388.99 578.554 388.52 577.689C388.051 576.809 387.816 575.79 387.816 574.631C387.816 573.443 388.051 572.416 388.52 571.551C389.004 570.671 389.657 569.996 390.478 569.527C391.314 569.043 392.246 568.801 393.272 568.801C394.328 568.801 395.26 569.043 396.066 569.527C396.888 569.996 397.533 570.671 398.002 571.551C398.486 572.416 398.728 573.436 398.728 574.609C398.728 575.782 398.486 576.809 398.002 577.689C397.518 578.554 396.866 579.229 396.044 579.713C395.223 580.182 394.284 580.417 393.228 580.417ZM393.25 578.833C393.881 578.833 394.468 578.679 395.01 578.371C395.553 578.048 395.993 577.572 396.33 576.941C396.668 576.31 396.836 575.533 396.836 574.609C396.836 573.67 396.668 572.893 396.33 572.277C396.008 571.646 395.575 571.177 395.032 570.869C394.504 570.546 393.918 570.385 393.272 570.385C392.656 570.385 392.07 570.546 391.512 570.869C390.97 571.177 390.53 571.646 390.192 572.277C389.87 572.893 389.708 573.67 389.708 574.609C389.708 575.533 389.87 576.31 390.192 576.941C390.53 577.572 390.962 578.048 391.49 578.371C392.033 578.679 392.62 578.833 393.25 578.833ZM399.747 580.153L403.509 574.609L399.747 569.065H401.771L404.763 573.597L407.799 569.065H409.779L406.017 574.609L409.779 580.153H407.799L404.763 575.599L401.771 580.153H399.747ZM411.937 580.153V569.065H413.785V580.153H411.937ZM412.861 566.711C412.494 566.711 412.186 566.594 411.937 566.359C411.702 566.11 411.585 565.802 411.585 565.435C411.585 565.068 411.702 564.775 411.937 564.555C412.186 564.32 412.494 564.203 412.861 564.203C413.213 564.203 413.513 564.32 413.763 564.555C414.012 564.775 414.137 565.068 414.137 565.435C414.137 565.802 414.012 566.11 413.763 566.359C413.513 566.594 413.213 566.711 412.861 566.711ZM417.046 580.153V569.065H418.718L418.806 571.001C419.158 570.312 419.657 569.776 420.302 569.395C420.962 568.999 421.71 568.801 422.546 568.801C423.411 568.801 424.159 568.977 424.79 569.329C425.421 569.666 425.912 570.187 426.264 570.891C426.616 571.58 426.792 572.46 426.792 573.531V580.153H424.944V573.729C424.944 572.614 424.695 571.778 424.196 571.221C423.712 570.664 423.023 570.385 422.128 570.385C421.512 570.385 420.962 570.539 420.478 570.847C419.994 571.14 419.605 571.573 419.312 572.145C419.033 572.702 418.894 573.399 418.894 574.235V580.153H417.046ZM430.867 583.343H428.975V583.167C429.869 582.287 430.647 581.304 431.307 580.219C431.981 579.134 432.502 577.975 432.869 576.743C433.25 575.496 433.441 574.191 433.441 572.827C433.441 571.463 433.25 570.165 432.869 568.933C432.502 567.686 431.981 566.52 431.307 565.435C430.647 564.35 429.869 563.367 428.975 562.487V562.311H430.867C431.673 563.059 432.407 563.961 433.067 565.017C433.741 566.073 434.277 567.254 434.673 568.559C435.083 569.864 435.289 571.287 435.289 572.827C435.289 574.367 435.083 575.79 434.673 577.095C434.277 578.4 433.741 579.574 433.067 580.615C432.407 581.671 431.673 582.58 430.867 583.343ZM443.839 580.153V564.753H445.687V578.679H452.859V580.153H443.839ZM459.72 580.417C458.694 580.417 457.777 580.175 456.97 579.691C456.164 579.207 455.533 578.532 455.078 577.667C454.624 576.787 454.396 575.768 454.396 574.609C454.396 573.436 454.616 572.416 455.056 571.551C455.511 570.686 456.142 570.011 456.948 569.527C457.77 569.043 458.708 568.801 459.764 568.801C460.85 568.801 461.774 569.043 462.536 569.527C463.299 570.011 463.878 570.649 464.274 571.441C464.685 572.218 464.89 573.076 464.89 574.015C464.89 574.162 464.89 574.316 464.89 574.477C464.89 574.638 464.883 574.822 464.868 575.027H455.782V573.597H463.064C463.02 572.585 462.683 571.793 462.052 571.221C461.436 570.649 460.659 570.363 459.72 570.363C459.104 570.363 458.525 570.51 457.982 570.803C457.44 571.082 457.007 571.5 456.684 572.057C456.362 572.6 456.2 573.282 456.2 574.103V574.719C456.2 575.628 456.362 576.391 456.684 577.007C457.022 577.623 457.454 578.085 457.982 578.393C458.525 578.701 459.104 578.855 459.72 578.855C460.498 578.855 461.136 578.686 461.634 578.349C462.148 577.997 462.522 577.52 462.756 576.919H464.582C464.392 577.594 464.076 578.195 463.636 578.723C463.196 579.236 462.646 579.647 461.986 579.955C461.341 580.263 460.586 580.417 459.72 580.417ZM470.123 580.153L465.921 569.065H467.857L471.201 578.371L474.567 569.065H476.459L472.257 580.153H470.123ZM482.838 580.417C481.811 580.417 480.894 580.175 480.088 579.691C479.281 579.207 478.65 578.532 478.196 577.667C477.741 576.787 477.514 575.768 477.514 574.609C477.514 573.436 477.734 572.416 478.174 571.551C478.628 570.686 479.259 570.011 480.066 569.527C480.887 569.043 481.826 568.801 482.882 568.801C483.967 568.801 484.891 569.043 485.654 569.527C486.416 570.011 486.996 570.649 487.392 571.441C487.802 572.218 488.008 573.076 488.008 574.015C488.008 574.162 488.008 574.316 488.008 574.477C488.008 574.638 488 574.822 487.986 575.027H478.9V573.597H486.182C486.138 572.585 485.8 571.793 485.17 571.221C484.554 570.649 483.776 570.363 482.838 570.363C482.222 570.363 481.642 570.51 481.1 570.803C480.557 571.082 480.124 571.5 479.802 572.057C479.479 572.6 479.318 573.282 479.318 574.103V574.719C479.318 575.628 479.479 576.391 479.802 577.007C480.139 577.623 480.572 578.085 481.1 578.393C481.642 578.701 482.222 578.855 482.838 578.855C483.615 578.855 484.253 578.686 484.752 578.349C485.265 577.997 485.639 577.52 485.874 576.919H487.7C487.509 577.594 487.194 578.195 486.754 578.723C486.314 579.236 485.764 579.647 485.104 579.955C484.458 580.263 483.703 580.417 482.838 580.417ZM490.479 580.153V564.313H492.327V580.153H490.479Z" fill="#423430"/>
<path d="M158.966 269.153V259.353H162.634C163.427 259.353 164.085 259.488 164.608 259.759C165.131 260.03 165.518 260.394 165.77 260.851C166.022 261.308 166.148 261.831 166.148 262.419C166.148 262.96 166.027 263.46 165.784 263.917C165.541 264.374 165.159 264.748 164.636 265.037C164.113 265.317 163.446 265.457 162.634 265.457H160.856V269.153H158.966ZM160.856 263.931H162.522C163.129 263.931 163.563 263.796 163.824 263.525C164.095 263.245 164.23 262.876 164.23 262.419C164.23 261.934 164.095 261.56 163.824 261.299C163.563 261.028 163.129 260.893 162.522 260.893H160.856V263.931ZM169.439 269.321C168.851 269.321 168.365 269.228 167.983 269.041C167.6 268.845 167.315 268.588 167.129 268.271C166.951 267.944 166.863 267.585 166.863 267.193C166.863 266.764 166.97 266.386 167.185 266.059C167.409 265.732 167.74 265.476 168.179 265.289C168.627 265.102 169.187 265.009 169.859 265.009H171.609C171.609 264.664 171.562 264.379 171.469 264.155C171.375 263.922 171.231 263.749 171.035 263.637C170.839 263.525 170.577 263.469 170.251 263.469C169.896 263.469 169.593 263.548 169.341 263.707C169.098 263.856 168.949 264.09 168.893 264.407H167.059C167.105 263.903 167.269 263.469 167.549 263.105C167.838 262.732 168.216 262.442 168.683 262.237C169.159 262.032 169.686 261.929 170.265 261.929C170.927 261.929 171.501 262.041 171.987 262.265C172.472 262.489 172.845 262.811 173.107 263.231C173.368 263.651 173.499 264.169 173.499 264.785V269.153H171.903L171.693 268.075C171.59 268.262 171.469 268.43 171.329 268.579C171.189 268.728 171.025 268.859 170.839 268.971C170.652 269.083 170.442 269.167 170.209 269.223C169.975 269.288 169.719 269.321 169.439 269.321ZM169.887 267.865C170.129 267.865 170.344 267.823 170.531 267.739C170.727 267.646 170.895 267.524 171.035 267.375C171.175 267.216 171.282 267.039 171.357 266.843C171.441 266.638 171.497 266.418 171.525 266.185V266.171H170.083C169.793 266.171 169.555 266.208 169.369 266.283C169.191 266.348 169.061 266.446 168.977 266.577C168.893 266.708 168.851 266.857 168.851 267.025C168.851 267.212 168.893 267.366 168.977 267.487C169.061 267.608 169.182 267.702 169.341 267.767C169.499 267.832 169.681 267.865 169.887 267.865ZM175.262 269.153V262.097H176.942L177.124 263.399C177.292 263.091 177.502 262.83 177.754 262.615C178.015 262.4 178.309 262.232 178.636 262.111C178.972 261.99 179.341 261.929 179.742 261.929V263.931H179.098C178.818 263.931 178.557 263.964 178.314 264.029C178.081 264.094 177.875 264.202 177.698 264.351C177.521 264.491 177.385 264.687 177.292 264.939C177.199 265.191 177.152 265.508 177.152 265.891V269.153H175.262ZM184.168 269.153C183.674 269.153 183.24 269.078 182.866 268.929C182.502 268.77 182.218 268.514 182.012 268.159C181.807 267.795 181.704 267.3 181.704 266.675V263.679H180.5V262.097H181.704L181.914 260.179H183.594V262.097H185.456V263.679H183.594V266.703C183.594 267.02 183.664 267.24 183.804 267.361C183.944 267.482 184.182 267.543 184.518 267.543H185.442V269.153H184.168ZM191.588 269.153V261.523L189.852 261.985V260.473L192.4 259.353H193.548V269.153H191.588ZM200.515 266.423C200.16 266.423 199.838 266.339 199.549 266.171C199.259 265.994 199.026 265.76 198.849 265.471C198.681 265.172 198.597 264.846 198.597 264.491C198.597 264.127 198.681 263.8 198.849 263.511C199.026 263.212 199.259 262.979 199.549 262.811C199.838 262.634 200.16 262.545 200.515 262.545C200.879 262.545 201.205 262.634 201.495 262.811C201.793 262.979 202.027 263.212 202.195 263.511C202.372 263.8 202.461 264.127 202.461 264.491C202.461 264.846 202.372 265.172 202.195 265.471C202.027 265.76 201.793 265.994 201.495 266.171C201.205 266.339 200.879 266.423 200.515 266.423ZM206.829 269.153L210.413 259.353H212.555L216.125 269.153H214.123L211.477 261.509L208.817 269.153H206.829ZM208.411 266.927L208.915 265.457H213.899L214.389 266.927H208.411Z" fill="white"/>
<path d="M329.966 133.153V123.353H333.634C334.427 123.353 335.085 123.488 335.608 123.759C336.131 124.03 336.518 124.394 336.77 124.851C337.022 125.308 337.148 125.831 337.148 126.419C337.148 126.96 337.027 127.46 336.784 127.917C336.541 128.374 336.159 128.748 335.636 129.037C335.113 129.317 334.446 129.457 333.634 129.457H331.856V133.153H329.966ZM331.856 127.931H333.522C334.129 127.931 334.563 127.796 334.824 127.525C335.095 127.245 335.23 126.876 335.23 126.419C335.23 125.934 335.095 125.56 334.824 125.299C334.563 125.028 334.129 124.893 333.522 124.893H331.856V127.931ZM340.439 133.321C339.851 133.321 339.365 133.228 338.983 133.041C338.6 132.845 338.315 132.588 338.129 132.271C337.951 131.944 337.863 131.585 337.863 131.193C337.863 130.764 337.97 130.386 338.185 130.059C338.409 129.732 338.74 129.476 339.179 129.289C339.627 129.102 340.187 129.009 340.859 129.009H342.609C342.609 128.664 342.562 128.379 342.469 128.155C342.375 127.922 342.231 127.749 342.035 127.637C341.839 127.525 341.577 127.469 341.251 127.469C340.896 127.469 340.593 127.548 340.341 127.707C340.098 127.856 339.949 128.09 339.893 128.407H338.059C338.105 127.903 338.269 127.469 338.549 127.105C338.838 126.732 339.216 126.442 339.683 126.237C340.159 126.032 340.686 125.929 341.265 125.929C341.927 125.929 342.501 126.041 342.987 126.265C343.472 126.489 343.845 126.811 344.107 127.231C344.368 127.651 344.499 128.169 344.499 128.785V133.153H342.903L342.693 132.075C342.59 132.262 342.469 132.43 342.329 132.579C342.189 132.728 342.025 132.859 341.839 132.971C341.652 133.083 341.442 133.167 341.209 133.223C340.975 133.288 340.719 133.321 340.439 133.321ZM340.887 131.865C341.129 131.865 341.344 131.823 341.531 131.739C341.727 131.646 341.895 131.524 342.035 131.375C342.175 131.216 342.282 131.039 342.357 130.843C342.441 130.638 342.497 130.418 342.525 130.185V130.171H341.083C340.793 130.171 340.555 130.208 340.369 130.283C340.191 130.348 340.061 130.446 339.977 130.577C339.893 130.708 339.851 130.857 339.851 131.025C339.851 131.212 339.893 131.366 339.977 131.487C340.061 131.608 340.182 131.702 340.341 131.767C340.499 131.832 340.681 131.865 340.887 131.865ZM346.262 133.153V126.097H347.942L348.124 127.399C348.292 127.091 348.502 126.83 348.754 126.615C349.015 126.4 349.309 126.232 349.636 126.111C349.972 125.99 350.341 125.929 350.742 125.929V127.931H350.098C349.818 127.931 349.557 127.964 349.314 128.029C349.081 128.094 348.875 128.202 348.698 128.351C348.521 128.491 348.385 128.687 348.292 128.939C348.199 129.191 348.152 129.508 348.152 129.891V133.153H346.262ZM355.168 133.153C354.674 133.153 354.24 133.078 353.866 132.929C353.502 132.77 353.218 132.514 353.012 132.159C352.807 131.795 352.704 131.3 352.704 130.675V127.679H351.5V126.097H352.704L352.914 124.179H354.594V126.097H356.456V127.679H354.594V130.703C354.594 131.02 354.664 131.24 354.804 131.361C354.944 131.482 355.182 131.543 355.518 131.543H356.442V133.153H355.168ZM362.588 133.153V125.523L360.852 125.985V124.473L363.4 123.353H364.548V133.153H362.588ZM371.515 130.423C371.16 130.423 370.838 130.339 370.549 130.171C370.259 129.994 370.026 129.76 369.849 129.471C369.681 129.172 369.597 128.846 369.597 128.491C369.597 128.127 369.681 127.8 369.849 127.511C370.026 127.212 370.259 126.979 370.549 126.811C370.838 126.634 371.16 126.545 371.515 126.545C371.879 126.545 372.205 126.634 372.495 126.811C372.793 126.979 373.027 127.212 373.195 127.511C373.372 127.8 373.461 128.127 373.461 128.491C373.461 128.846 373.372 129.172 373.195 129.471C373.027 129.76 372.793 129.994 372.495 130.171C372.205 130.339 371.879 130.423 371.515 130.423ZM378.487 133.153V123.353H382.505C383.187 123.353 383.761 123.46 384.227 123.675C384.694 123.89 385.044 124.188 385.277 124.571C385.52 124.944 385.641 125.378 385.641 125.873C385.641 126.368 385.534 126.783 385.319 127.119C385.105 127.455 384.82 127.716 384.465 127.903C384.12 128.08 383.737 128.183 383.317 128.211L383.541 128.057C383.989 128.076 384.386 128.197 384.731 128.421C385.086 128.636 385.361 128.925 385.557 129.289C385.763 129.653 385.865 130.05 385.865 130.479C385.865 131.002 385.739 131.464 385.487 131.865C385.235 132.266 384.871 132.584 384.395 132.817C383.919 133.041 383.336 133.153 382.645 133.153H378.487ZM380.377 131.613H382.337C382.851 131.613 383.247 131.496 383.527 131.263C383.807 131.03 383.947 130.694 383.947 130.255C383.947 129.816 383.803 129.476 383.513 129.233C383.224 128.981 382.823 128.855 382.309 128.855H380.377V131.613ZM380.377 127.441H382.197C382.692 127.441 383.065 127.329 383.317 127.105C383.579 126.881 383.709 126.564 383.709 126.153C383.709 125.752 383.579 125.439 383.317 125.215C383.065 124.982 382.687 124.865 382.183 124.865H380.377V127.441Z" fill="white"/>
<path d="M477.966 269.153V259.353H481.634C482.427 259.353 483.085 259.488 483.608 259.759C484.131 260.03 484.518 260.394 484.77 260.851C485.022 261.308 485.148 261.831 485.148 262.419C485.148 262.96 485.027 263.46 484.784 263.917C484.541 264.374 484.159 264.748 483.636 265.037C483.113 265.317 482.446 265.457 481.634 265.457H479.856V269.153H477.966ZM479.856 263.931H481.522C482.129 263.931 482.563 263.796 482.824 263.525C483.095 263.245 483.23 262.876 483.23 262.419C483.23 261.934 483.095 261.56 482.824 261.299C482.563 261.028 482.129 260.893 481.522 260.893H479.856V263.931ZM488.439 269.321C487.851 269.321 487.365 269.228 486.983 269.041C486.6 268.845 486.315 268.588 486.129 268.271C485.951 267.944 485.863 267.585 485.863 267.193C485.863 266.764 485.97 266.386 486.185 266.059C486.409 265.732 486.74 265.476 487.179 265.289C487.627 265.102 488.187 265.009 488.859 265.009H490.609C490.609 264.664 490.562 264.379 490.469 264.155C490.375 263.922 490.231 263.749 490.035 263.637C489.839 263.525 489.577 263.469 489.251 263.469C488.896 263.469 488.593 263.548 488.341 263.707C488.098 263.856 487.949 264.09 487.893 264.407H486.059C486.105 263.903 486.269 263.469 486.549 263.105C486.838 262.732 487.216 262.442 487.683 262.237C488.159 262.032 488.686 261.929 489.265 261.929C489.927 261.929 490.501 262.041 490.987 262.265C491.472 262.489 491.845 262.811 492.107 263.231C492.368 263.651 492.499 264.169 492.499 264.785V269.153H490.903L490.693 268.075C490.59 268.262 490.469 268.43 490.329 268.579C490.189 268.728 490.025 268.859 489.839 268.971C489.652 269.083 489.442 269.167 489.209 269.223C488.975 269.288 488.719 269.321 488.439 269.321ZM488.887 267.865C489.129 267.865 489.344 267.823 489.531 267.739C489.727 267.646 489.895 267.524 490.035 267.375C490.175 267.216 490.282 267.039 490.357 266.843C490.441 266.638 490.497 266.418 490.525 266.185V266.171H489.083C488.793 266.171 488.555 266.208 488.369 266.283C488.191 266.348 488.061 266.446 487.977 266.577C487.893 266.708 487.851 266.857 487.851 267.025C487.851 267.212 487.893 267.366 487.977 267.487C488.061 267.608 488.182 267.702 488.341 267.767C488.499 267.832 488.681 267.865 488.887 267.865ZM494.262 269.153V262.097H495.942L496.124 263.399C496.292 263.091 496.502 262.83 496.754 262.615C497.015 262.4 497.309 262.232 497.636 262.111C497.972 261.99 498.341 261.929 498.742 261.929V263.931H498.098C497.818 263.931 497.557 263.964 497.314 264.029C497.081 264.094 496.875 264.202 496.698 264.351C496.521 264.491 496.385 264.687 496.292 264.939C496.199 265.191 496.152 265.508 496.152 265.891V269.153H494.262ZM503.168 269.153C502.674 269.153 502.24 269.078 501.866 268.929C501.502 268.77 501.218 268.514 501.012 268.159C500.807 267.795 500.704 267.3 500.704 266.675V263.679H499.5V262.097H500.704L500.914 260.179H502.594V262.097H504.456V263.679H502.594V266.703C502.594 267.02 502.664 267.24 502.804 267.361C502.944 267.482 503.182 267.543 503.518 267.543H504.442V269.153H503.168ZM510.588 269.153V261.523L508.852 261.985V260.473L511.4 259.353H512.548V269.153H510.588ZM519.515 266.423C519.16 266.423 518.838 266.339 518.549 266.171C518.259 265.994 518.026 265.76 517.849 265.471C517.681 265.172 517.597 264.846 517.597 264.491C517.597 264.127 517.681 263.8 517.849 263.511C518.026 263.212 518.259 262.979 518.549 262.811C518.838 262.634 519.16 262.545 519.515 262.545C519.879 262.545 520.205 262.634 520.495 262.811C520.793 262.979 521.027 263.212 521.195 263.511C521.372 263.8 521.461 264.127 521.461 264.491C521.461 264.846 521.372 265.172 521.195 265.471C521.027 265.76 520.793 265.994 520.495 266.171C520.205 266.339 519.879 266.423 519.515 266.423ZM530.883 269.321C529.903 269.321 529.059 269.111 528.349 268.691C527.649 268.262 527.108 267.669 526.725 266.913C526.352 266.148 526.165 265.266 526.165 264.267C526.165 263.268 526.352 262.386 526.725 261.621C527.108 260.856 527.649 260.258 528.349 259.829C529.059 259.4 529.903 259.185 530.883 259.185C532.069 259.185 533.039 259.479 533.795 260.067C534.551 260.655 535.023 261.486 535.209 262.559H533.151C533.03 262.036 532.773 261.63 532.381 261.341C531.999 261.042 531.495 260.893 530.869 260.893C530.291 260.893 529.791 261.033 529.371 261.313C528.961 261.584 528.643 261.971 528.419 262.475C528.195 262.97 528.083 263.567 528.083 264.267C528.083 264.958 528.195 265.555 528.419 266.059C528.643 266.563 528.961 266.95 529.371 267.221C529.791 267.492 530.291 267.627 530.869 267.627C531.495 267.627 531.999 267.492 532.381 267.221C532.764 266.941 533.016 266.554 533.137 266.059H535.209C535.023 267.076 534.551 267.874 533.795 268.453C533.039 269.032 532.069 269.321 530.883 269.321Z" fill="white"/>
<path d="M323.966 450.153V440.353H327.634C328.427 440.353 329.085 440.488 329.608 440.759C330.131 441.03 330.518 441.394 330.77 441.851C331.022 442.308 331.148 442.831 331.148 443.419C331.148 443.96 331.027 444.46 330.784 444.917C330.541 445.374 330.159 445.748 329.636 446.037C329.113 446.317 328.446 446.457 327.634 446.457H325.856V450.153H323.966ZM325.856 444.931H327.522C328.129 444.931 328.563 444.796 328.824 444.525C329.095 444.245 329.23 443.876 329.23 443.419C329.23 442.934 329.095 442.56 328.824 442.299C328.563 442.028 328.129 441.893 327.522 441.893H325.856V444.931ZM334.439 450.321C333.851 450.321 333.365 450.228 332.983 450.041C332.6 449.845 332.315 449.588 332.129 449.271C331.951 448.944 331.863 448.585 331.863 448.193C331.863 447.764 331.97 447.386 332.185 447.059C332.409 446.732 332.74 446.476 333.179 446.289C333.627 446.102 334.187 446.009 334.859 446.009H336.609C336.609 445.664 336.562 445.379 336.469 445.155C336.375 444.922 336.231 444.749 336.035 444.637C335.839 444.525 335.577 444.469 335.251 444.469C334.896 444.469 334.593 444.548 334.341 444.707C334.098 444.856 333.949 445.09 333.893 445.407H332.059C332.105 444.903 332.269 444.469 332.549 444.105C332.838 443.732 333.216 443.442 333.683 443.237C334.159 443.032 334.686 442.929 335.265 442.929C335.927 442.929 336.501 443.041 336.987 443.265C337.472 443.489 337.845 443.811 338.107 444.231C338.368 444.651 338.499 445.169 338.499 445.785V450.153H336.903L336.693 449.075C336.59 449.262 336.469 449.43 336.329 449.579C336.189 449.728 336.025 449.859 335.839 449.971C335.652 450.083 335.442 450.167 335.209 450.223C334.975 450.288 334.719 450.321 334.439 450.321ZM334.887 448.865C335.129 448.865 335.344 448.823 335.531 448.739C335.727 448.646 335.895 448.524 336.035 448.375C336.175 448.216 336.282 448.039 336.357 447.843C336.441 447.638 336.497 447.418 336.525 447.185V447.171H335.083C334.793 447.171 334.555 447.208 334.369 447.283C334.191 447.348 334.061 447.446 333.977 447.577C333.893 447.708 333.851 447.857 333.851 448.025C333.851 448.212 333.893 448.366 333.977 448.487C334.061 448.608 334.182 448.702 334.341 448.767C334.499 448.832 334.681 448.865 334.887 448.865ZM340.262 450.153V443.097H341.942L342.124 444.399C342.292 444.091 342.502 443.83 342.754 443.615C343.015 443.4 343.309 443.232 343.636 443.111C343.972 442.99 344.341 442.929 344.742 442.929V444.931H344.098C343.818 444.931 343.557 444.964 343.314 445.029C343.081 445.094 342.875 445.202 342.698 445.351C342.521 445.491 342.385 445.687 342.292 445.939C342.199 446.191 342.152 446.508 342.152 446.891V450.153H340.262ZM349.168 450.153C348.674 450.153 348.24 450.078 347.866 449.929C347.502 449.77 347.218 449.514 347.012 449.159C346.807 448.795 346.704 448.3 346.704 447.675V444.679H345.5V443.097H346.704L346.914 441.179H348.594V443.097H350.456V444.679H348.594V447.703C348.594 448.02 348.664 448.24 348.804 448.361C348.944 448.482 349.182 448.543 349.518 448.543H350.442V450.153H349.168ZM355.118 450.153V448.767C355.715 448.291 356.294 447.815 356.854 447.339C357.423 446.863 357.932 446.392 358.38 445.925C358.828 445.449 359.183 444.987 359.444 444.539C359.705 444.091 359.836 443.657 359.836 443.237C359.836 442.976 359.789 442.738 359.696 442.523C359.603 442.299 359.453 442.122 359.248 441.991C359.052 441.851 358.791 441.781 358.464 441.781C358.137 441.781 357.862 441.856 357.638 442.005C357.414 442.154 357.246 442.355 357.134 442.607C357.022 442.85 356.966 443.125 356.966 443.433H355.132C355.16 442.714 355.323 442.112 355.622 441.627C355.921 441.142 356.322 440.782 356.826 440.549C357.33 440.306 357.895 440.185 358.52 440.185C359.211 440.185 359.794 440.316 360.27 440.577C360.746 440.829 361.105 441.174 361.348 441.613C361.6 442.052 361.726 442.556 361.726 443.125C361.726 443.554 361.647 443.974 361.488 444.385C361.339 444.796 361.124 445.197 360.844 445.589C360.573 445.972 360.265 446.34 359.92 446.695C359.575 447.05 359.215 447.39 358.842 447.717C358.469 448.034 358.105 448.333 357.75 448.613H361.964V450.153H355.118Z" fill="white"/>
</svg>
