<svg width="1340" height="754" viewBox="0 0 1340 754" fill="none" xmlns="http://www.w3.org/2000/svg">
<rect x="0.5" y="0.5" width="1339" height="753" rx="19.5" fill="#FEF8F1" stroke="#EFDBC3"/>
<g opacity="0.48">
<mask id="mask0_4183_2628" style="mask-type:alpha" maskUnits="userSpaceOnUse" x="0" y="0" width="1340" height="754">
<rect x="0.5" y="0.5" width="1339" height="753" rx="19.5" fill="#FEF8F1" stroke="#EFDBC3"/>
</mask>
<g mask="url(#mask0_4183_2628)">
<path d="M744.069 361.089L738.155 362.236C737.304 362.443 736.497 362.802 735.773 363.295C732.594 366.207 724.562 376.268 749.896 390.388C758.722 393.741 814.065 414.568 820.508 452.163C824.215 472.725 828.452 516.85 776.375 586.48L773.992 589.657C773.094 596.013 771.737 602.295 769.931 608.455C1054.5 360.206 671.162 24.2364 669.75 23.0012C668.337 24.2364 284.996 360.206 569.567 608.455C567.761 602.295 566.404 596.013 565.506 589.657L563.123 586.48C510.87 516.85 515.107 472.725 518.99 452.163C525.698 414.48 580.776 393.653 589.603 390.388C614.936 376.268 607.256 366.207 603.726 363.295C603.001 362.802 602.194 362.443 601.342 362.236L595.429 361.089C590.285 358.965 587.157 353.705 587.749 348.172C588.342 342.639 592.512 338.16 597.989 337.173H741.687C747.142 338.211 751.263 342.715 751.813 348.241C752.364 353.765 749.212 358.994 744.069 361.089ZM735.243 324.111H604.608C573.539 259.071 623.056 227.036 634.531 222.27C644.329 218.211 655.803 196.943 656.95 193.501C658.098 190.059 663.129 179.822 669.838 179.204C676.546 179.822 681.577 190.059 682.724 193.501C683.872 196.943 695.347 218.211 705.144 222.27C716.707 227.389 766.136 259.071 735.066 324.111H735.243Z" fill="#FAF0E3"/>
<path d="M624.069 551.173C606.64 538.56 586.46 530.271 565.196 526.993C561.547 554.21 563.044 581.871 569.609 608.536C587.411 623.859 606.257 637.924 626.011 650.632C619.679 639.537 615.6 627.301 614.007 614.626C611.858 592.962 615.323 571.11 624.069 551.173Z" fill="#FAF0E3"/>
<path d="M774.745 526.993C753.48 530.271 733.3 538.559 715.872 551.174C724.66 571.097 728.127 592.961 725.934 614.625C724.341 627.301 720.262 639.536 713.93 650.631C733.698 637.945 752.546 623.879 770.332 608.536C776.896 581.871 778.394 554.211 774.745 526.993Z" fill="#FAF0E3"/>
<path d="M670.006 501.858C670.006 501.858 625.873 548.542 625.873 602.022C625.873 659.297 669.565 669.004 669.565 669.004H670.801C670.801 669.004 714.492 659.297 714.492 602.022C714.316 548.278 670.094 501.858 670.006 501.858Z" fill="#FAF0E3"/>
<path d="M518.071 168.235C493.708 146.147 464.777 129.695 433.335 120.05C431.099 119.472 428.829 119.03 426.539 118.726C334.566 198.152 294.669 362.474 368.107 492.997C409.504 566.156 486.649 628.549 610.222 658.996C293.875 451.166 518.071 168.235 518.071 168.235Z" fill="#FAF0E3"/>
<path d="M821.863 168.235C846.265 146.155 875.223 129.705 906.687 120.05C908.92 119.455 911.189 119.013 913.483 118.726C1005.37 198.152 1045.35 362.474 971.916 492.997C930.519 566.156 853.374 628.549 729.801 658.996C1045.97 451.166 821.863 168.235 821.863 168.235Z" fill="#FAF0E3"/>
<path d="M1480.07 361.089L1474.16 362.236C1473.3 362.443 1472.5 362.802 1471.77 363.295C1468.59 366.207 1460.56 376.268 1485.9 390.388C1494.72 393.741 1550.06 414.568 1556.51 452.163C1560.22 472.725 1564.45 516.85 1512.37 586.48L1509.99 589.657C1509.09 596.013 1507.74 602.295 1505.93 608.455C1790.5 360.206 1407.16 24.2364 1405.75 23.0012C1404.34 24.2364 1021 360.206 1305.57 608.455C1303.76 602.295 1302.4 596.013 1301.51 589.657L1299.12 586.48C1246.87 516.85 1251.11 472.725 1254.99 452.163C1261.7 414.48 1316.78 393.653 1325.6 390.388C1350.94 376.268 1343.26 366.207 1339.73 363.295C1339 362.802 1338.19 362.443 1337.34 362.236L1331.43 361.089C1326.28 358.965 1323.16 353.705 1323.75 348.172C1324.34 342.639 1328.51 338.16 1333.99 337.173H1477.69C1483.14 338.211 1487.26 342.715 1487.81 348.241C1488.36 353.765 1485.21 358.994 1480.07 361.089ZM1471.24 324.111H1340.61C1309.54 259.071 1359.06 227.036 1370.53 222.27C1380.33 218.211 1391.8 196.943 1392.95 193.501C1394.1 190.059 1399.13 179.822 1405.84 179.204C1412.55 179.822 1417.58 190.059 1418.72 193.501C1419.87 196.943 1431.35 218.211 1441.14 222.27C1452.71 227.389 1502.14 259.071 1471.07 324.111H1471.24Z" fill="#FAF0E3"/>
<path d="M1360.07 551.173C1342.64 538.56 1322.46 530.271 1301.2 526.993C1297.55 554.21 1299.04 581.871 1305.61 608.536C1323.41 623.859 1342.26 637.924 1362.01 650.632C1355.68 639.537 1351.6 627.301 1350.01 614.626C1347.86 592.962 1351.32 571.11 1360.07 551.173Z" fill="#FAF0E3"/>
<path d="M1254.07 168.235C1229.71 146.147 1200.78 129.695 1169.34 120.05C1167.1 119.472 1164.83 119.03 1162.54 118.726C1070.57 198.152 1030.67 362.474 1104.11 492.997C1145.5 566.156 1222.65 628.549 1346.22 658.996C1029.87 451.166 1254.07 168.235 1254.07 168.235Z" fill="#FAF0E3"/>
<path d="M-22.9306 357.089L-28.8446 358.236C-29.6956 358.443 -30.503 358.802 -31.2273 359.295C-34.4055 362.207 -42.4376 372.268 -17.1044 386.388C-8.27817 389.741 47.0648 410.568 53.5077 448.163C57.2154 468.725 61.4522 512.85 9.37497 582.48L6.99185 585.657C6.09357 592.013 4.73734 598.295 2.93143 604.455C287.502 356.206 -95.8383 20.2364 -97.2504 19.0012C-98.6633 20.2364 -482.004 356.206 -197.433 604.455C-199.239 598.295 -200.596 592.013 -201.494 585.657L-203.877 582.48C-256.13 512.85 -251.893 468.725 -248.01 448.163C-241.302 410.48 -186.224 389.653 -177.397 386.388C-152.064 372.268 -159.744 362.207 -163.274 359.295C-163.999 358.802 -164.806 358.443 -165.658 358.236L-171.571 357.089C-176.715 354.965 -179.843 349.705 -179.251 344.172C-178.658 338.639 -174.488 334.16 -169.011 333.173H-25.3133C-19.8583 334.211 -15.7368 338.715 -15.1866 344.241C-14.6363 349.765 -17.7875 354.994 -22.9306 357.089ZM-31.757 320.111H-162.392C-193.461 255.071 -143.944 223.036 -132.469 218.27C-122.671 214.211 -111.197 192.943 -110.05 189.501C-108.902 186.059 -103.871 175.822 -97.1624 175.204C-90.4544 175.822 -85.4228 186.059 -84.2757 189.501C-83.1282 192.943 -71.6533 214.211 -61.8561 218.27C-50.2931 223.389 -0.864105 255.071 -31.9336 320.111H-31.757Z" fill="#FAF0E3"/>
<path d="M7.74528 522.993C-13.5204 526.271 -33.7002 534.559 -51.1284 547.174C-42.3401 567.097 -38.8732 588.961 -41.0661 610.625C-42.6589 623.301 -46.7385 635.536 -53.0703 646.631C-33.302 633.945 -14.4536 619.879 3.33172 604.536C9.89632 577.871 11.3937 550.211 7.74528 522.993Z" fill="#FAF0E3"/>
<path d="M54.8627 164.235C79.2648 142.155 108.223 125.705 139.687 116.05C141.92 115.455 144.189 115.013 146.483 114.726C238.369 194.152 278.353 358.474 204.916 488.997C163.519 562.156 86.3739 624.549 -37.1992 654.996C278.971 447.166 54.8627 164.235 54.8627 164.235Z" fill="#FAF0E3"/>
<path d="M961.931 -113.086L967.845 -114.233C968.696 -114.441 969.503 -114.799 970.227 -115.292C973.406 -118.204 981.438 -128.265 956.104 -142.385C947.278 -145.739 891.935 -166.565 885.492 -204.16C881.785 -224.722 877.548 -268.848 929.625 -338.477L932.008 -341.654C932.906 -348.01 934.263 -354.292 936.069 -360.452C651.498 -112.203 1034.84 223.766 1036.25 225.002C1037.66 223.766 1421 -112.203 1136.43 -360.452C1138.24 -354.292 1139.6 -348.01 1140.49 -341.654L1142.88 -338.477C1195.13 -268.848 1190.89 -224.722 1187.01 -204.16C1180.3 -166.477 1125.22 -145.65 1116.4 -142.385C1091.06 -128.265 1098.74 -118.204 1102.27 -115.292C1103 -114.799 1103.81 -114.441 1104.66 -114.233L1110.57 -113.086C1115.72 -110.962 1118.84 -105.702 1118.25 -100.169C1117.66 -94.6362 1113.49 -90.1567 1108.01 -89.1696L964.313 -89.1696C958.858 -90.2086 954.737 -94.7125 954.187 -100.238C953.636 -105.762 956.788 -110.991 961.931 -113.086ZM970.757 -76.1084L1101.39 -76.1084C1132.46 -11.068 1082.94 20.9668 1071.47 25.7325C1061.67 29.7921 1050.2 51.0602 1049.05 54.5021C1047.9 57.9437 1042.87 68.181 1036.16 68.7986C1029.45 68.181 1024.42 57.9437 1023.28 54.5021C1022.13 51.0602 1010.65 29.7921 1000.86 25.7325C989.293 20.6137 939.864 -11.0681 970.934 -76.1084L970.757 -76.1084Z" fill="#FAF0E3"/>
<path d="M1187.93 79.7682C1212.29 101.856 1241.22 118.308 1272.66 127.953C1274.9 128.531 1277.17 128.973 1279.46 129.277C1371.43 49.8511 1411.33 -114.471 1337.89 -244.994C1296.5 -318.153 1219.35 -380.547 1095.78 -410.993C1412.13 -203.163 1187.93 79.7682 1187.93 79.7682Z" fill="#FAF0E3"/>
<path d="M884.137 79.768C859.735 101.848 830.777 118.298 799.313 127.953C797.08 128.547 794.811 128.99 792.517 129.277C700.631 49.8509 660.647 -114.472 734.084 -244.994C775.482 -318.154 852.626 -380.547 976.199 -410.993C660.029 -203.163 884.137 79.768 884.137 79.768Z" fill="#FAF0E3"/>
<path d="M211.931 -113.086L217.845 -114.233C218.696 -114.441 219.503 -114.799 220.227 -115.292C223.406 -118.204 231.438 -128.265 206.104 -142.385C197.278 -145.739 141.935 -166.565 135.492 -204.16C131.785 -224.722 127.548 -268.848 179.625 -338.477L182.008 -341.654C182.906 -348.01 184.263 -354.292 186.069 -360.452C-98.502 -112.203 284.838 223.766 286.25 225.002C287.663 223.766 671.004 -112.203 386.433 -360.452C388.239 -354.292 389.596 -348.01 390.494 -341.654L392.877 -338.477C445.13 -268.848 440.893 -224.722 437.01 -204.16C430.302 -166.477 375.224 -145.65 366.397 -142.385C341.064 -128.265 348.744 -118.204 352.274 -115.292C352.999 -114.799 353.806 -114.441 354.658 -114.233L360.571 -113.086C365.715 -110.962 368.843 -105.702 368.251 -100.169C367.658 -94.6362 363.488 -90.1567 358.011 -89.1696L214.313 -89.1696C208.858 -90.2086 204.737 -94.7125 204.187 -100.238C203.636 -105.762 206.788 -110.991 211.931 -113.086ZM220.757 -76.1084L351.392 -76.1084C382.461 -11.068 332.944 20.9668 321.469 25.7325C311.671 29.7921 300.197 51.0602 299.05 54.5021C297.902 57.9437 292.871 68.181 286.162 68.7986C279.454 68.181 274.423 57.9437 273.276 54.5021C272.128 51.0602 260.653 29.7921 250.856 25.7325C239.293 20.6137 189.864 -11.0681 220.934 -76.1084L220.757 -76.1084Z" fill="#FAF0E3"/>
<path d="M437.929 79.7682C462.292 101.856 491.223 118.308 522.665 127.953C524.901 128.531 527.171 128.973 529.461 129.277C621.434 49.8511 661.331 -114.471 587.893 -244.994C546.496 -318.153 469.351 -380.547 345.778 -410.993C662.125 -203.163 437.929 79.7682 437.929 79.7682Z" fill="#FAF0E3"/>
<path d="M134.137 79.768C109.735 101.848 80.7768 118.298 49.3133 127.953C47.0802 128.547 44.8106 128.99 42.5173 129.277C-49.3685 49.8509 -89.3532 -114.472 -15.9158 -244.994C25.4815 -318.154 102.626 -380.547 226.199 -410.993C-89.9708 -203.163 134.137 79.768 134.137 79.768Z" fill="#FAF0E3"/>
<path d="M193.931 878.916L199.845 877.769C200.696 877.561 201.503 877.203 202.227 876.71C205.406 873.798 213.438 863.737 188.104 849.617C179.278 846.263 123.935 825.436 117.492 787.841C113.785 767.279 109.548 723.154 161.625 653.524L164.008 650.347C164.906 643.991 166.263 637.71 168.069 631.55C-116.502 879.798 266.838 1215.77 268.25 1217C269.663 1215.77 653.004 879.799 368.433 631.55C370.239 637.71 371.596 643.992 372.494 650.347L374.877 653.524C427.13 723.154 422.893 767.279 419.01 787.841C412.302 825.525 357.224 846.352 348.397 849.617C323.064 863.737 330.744 873.798 334.274 876.71C334.999 877.203 335.806 877.561 336.658 877.769L342.571 878.916C347.715 881.039 350.843 886.3 350.251 891.832C349.658 897.365 345.488 901.845 340.011 902.832L196.313 902.832C190.858 901.793 186.737 897.289 186.187 891.764C185.636 886.239 188.788 881.011 193.931 878.916ZM202.757 915.893L333.392 915.893C364.461 980.934 314.944 1012.97 303.469 1017.73C293.671 1021.79 282.197 1043.06 281.05 1046.5C279.902 1049.95 274.871 1060.18 268.162 1060.8C261.454 1060.18 256.423 1049.95 255.276 1046.5C254.128 1043.06 242.653 1021.79 232.856 1017.73C221.293 1012.62 171.864 980.934 202.934 915.893L202.757 915.893Z" fill="#FAF0E3"/>
<path d="M313.931 688.831C331.36 701.445 351.54 709.734 372.804 713.012C376.453 685.794 374.956 658.133 368.391 631.468C350.589 616.146 331.743 602.081 311.989 589.372C318.321 600.468 322.4 612.704 323.993 625.378C326.142 647.042 322.677 668.894 313.931 688.831Z" fill="#FAF0E3"/>
<path d="M163.255 713.012C184.52 709.734 204.7 701.445 222.128 688.831C213.34 668.907 209.873 647.044 212.066 625.379C213.659 612.704 217.738 600.468 224.07 589.373C204.302 602.059 185.454 616.126 167.668 631.468C161.104 658.134 159.606 685.794 163.255 713.012Z" fill="#FAF0E3"/>
<path d="M267.994 738.146C267.994 738.146 312.127 691.462 312.127 637.982C312.127 580.708 268.435 571 268.435 571L267.199 571C267.199 571 223.508 580.708 223.508 637.982C223.684 691.727 267.906 738.146 267.994 738.146Z" fill="#FAF0E3"/>
<path d="M419.929 1071.77C444.292 1093.86 473.223 1110.31 504.665 1119.95C506.901 1120.53 509.171 1120.97 511.461 1121.28C603.434 1041.85 643.331 877.531 569.893 747.008C528.496 673.849 451.351 611.455 327.778 581.009C644.125 788.839 419.929 1071.77 419.929 1071.77Z" fill="#FAF0E3"/>
<path d="M116.137 1071.77C91.7352 1093.85 62.7768 1110.3 31.3133 1119.95C29.0802 1120.55 26.8106 1120.99 24.5173 1121.28C-67.3685 1041.85 -107.353 877.53 -33.9158 747.008C7.48153 673.848 84.6262 611.455 208.199 581.008C-107.971 788.838 116.137 1071.77 116.137 1071.77Z" fill="#FAF0E3"/>
<path d="M975.931 878.916L981.845 877.769C982.696 877.561 983.503 877.203 984.227 876.71C987.406 873.798 995.438 863.737 970.104 849.617C961.278 846.263 905.935 825.436 899.492 787.841C895.785 767.279 891.548 723.154 943.625 653.524L946.008 650.347C946.906 643.991 948.263 637.71 950.069 631.55C665.498 879.798 1048.84 1215.77 1050.25 1217C1051.66 1215.77 1435 879.799 1150.43 631.55C1152.24 637.71 1153.6 643.992 1154.49 650.347L1156.88 653.524C1209.13 723.154 1204.89 767.279 1201.01 787.841C1194.3 825.525 1139.22 846.352 1130.4 849.617C1105.06 863.737 1112.74 873.798 1116.27 876.71C1117 877.203 1117.81 877.561 1118.66 877.769L1124.57 878.916C1129.72 881.039 1132.84 886.3 1132.25 891.832C1131.66 897.365 1127.49 901.845 1122.01 902.832L978.313 902.832C972.858 901.793 968.737 897.289 968.187 891.764C967.636 886.239 970.788 881.011 975.931 878.916ZM984.757 915.893L1115.39 915.893C1146.46 980.934 1096.94 1012.97 1085.47 1017.73C1075.67 1021.79 1064.2 1043.06 1063.05 1046.5C1061.9 1049.95 1056.87 1060.18 1050.16 1060.8C1043.45 1060.18 1038.42 1049.95 1037.28 1046.5C1036.13 1043.06 1024.65 1021.79 1014.86 1017.73C1003.29 1012.62 953.864 980.934 984.934 915.893L984.757 915.893Z" fill="#FAF0E3"/>
<path d="M1095.93 688.831C1113.36 701.445 1133.54 709.734 1154.8 713.012C1158.45 685.794 1156.96 658.133 1150.39 631.468C1132.59 616.146 1113.74 602.081 1093.99 589.372C1100.32 600.468 1104.4 612.704 1105.99 625.378C1108.14 647.042 1104.68 668.894 1095.93 688.831Z" fill="#FAF0E3"/>
<path d="M945.255 713.012C966.52 709.734 986.7 701.445 1004.13 688.831C995.34 668.907 991.873 647.044 994.066 625.379C995.659 612.704 999.738 600.468 1006.07 589.373C986.302 602.059 967.454 616.126 949.668 631.468C943.104 658.134 941.606 685.794 945.255 713.012Z" fill="#FAF0E3"/>
<path d="M1049.99 738.146C1049.99 738.146 1094.13 691.462 1094.13 637.982C1094.13 580.708 1050.44 571 1050.44 571L1049.2 571C1049.2 571 1005.51 580.708 1005.51 637.982C1005.68 691.727 1049.91 738.146 1049.99 738.146Z" fill="#FAF0E3"/>
<path d="M1201.93 1071.77C1226.29 1093.86 1255.22 1110.31 1286.66 1119.95C1288.9 1120.53 1291.17 1120.97 1293.46 1121.28C1385.43 1041.85 1425.33 877.531 1351.89 747.008C1310.5 673.849 1233.35 611.455 1109.78 581.009C1426.13 788.839 1201.93 1071.77 1201.93 1071.77Z" fill="#FAF0E3"/>
<path d="M898.137 1071.77C873.735 1093.85 844.777 1110.3 813.313 1119.95C811.08 1120.55 808.811 1120.99 806.517 1121.28C714.631 1041.85 674.647 877.53 748.084 747.008C789.482 673.848 866.626 611.455 990.199 581.008C674.029 788.838 898.137 1071.77 898.137 1071.77Z" fill="#FAF0E3"/>
</g>
</g>
</svg>
